<mxfile host="app.diagrams.net" modified="2023-10-16T10:51:37.649Z" agent="Mozilla/5.0 (Windows NT 10.0; Win64; x64) AppleWebKit/537.36 (KHTML, like Gecko) Chrome/118.0.0.0 Safari/537.36 Edg/118.0.2088.46" etag="9z3ah2GBjP7pQcYn7foM" version="22.0.4" type="device" pages="2">
  <diagram name="console screen" id="aCa10X93ug37ff6N-BZ9">
    <mxGraphModel dx="2981" dy="1311" grid="1" gridSize="10" guides="1" tooltips="1" connect="1" arrows="1" fold="1" page="1" pageScale="1" pageWidth="850" pageHeight="1100" math="0" shadow="0">
      <root>
        <mxCell id="0" />
        <mxCell id="1" parent="0" />
        <mxCell id="7bU3Pskr32MJ_-238bRp-6" value="&lt;span style=&quot;background-color: initial;&quot;&gt;Main Menu&lt;/span&gt;" style="swimlane;fontStyle=0;childLayout=stackLayout;horizontal=1;startSize=30;horizontalStack=0;resizeParent=1;resizeParentMax=0;resizeLast=0;collapsible=1;marginBottom=0;whiteSpace=wrap;html=1;align=center;" vertex="1" parent="1">
          <mxGeometry x="522" y="80" width="180" height="120" as="geometry" />
        </mxCell>
        <mxCell id="7bU3Pskr32MJ_-238bRp-7" value="&lt;ul&gt;&lt;li&gt;Manage Employees&lt;/li&gt;&lt;/ul&gt;" style="text;strokeColor=none;fillColor=none;align=left;verticalAlign=middle;spacingLeft=4;spacingRight=4;overflow=hidden;points=[[0,0.5],[1,0.5]];portConstraint=eastwest;rotatable=0;whiteSpace=wrap;html=1;" vertex="1" parent="7bU3Pskr32MJ_-238bRp-6">
          <mxGeometry y="30" width="180" height="30" as="geometry" />
        </mxCell>
        <mxCell id="7bU3Pskr32MJ_-238bRp-8" value="&lt;ul&gt;&lt;li&gt;&lt;span style=&quot;background-color: initial;&quot;&gt;Travel Requests&lt;/span&gt;&lt;/li&gt;&lt;/ul&gt;" style="text;strokeColor=none;fillColor=none;align=left;verticalAlign=middle;spacingLeft=4;spacingRight=4;overflow=hidden;points=[[0,0.5],[1,0.5]];portConstraint=eastwest;rotatable=0;whiteSpace=wrap;html=1;" vertex="1" parent="7bU3Pskr32MJ_-238bRp-6">
          <mxGeometry y="60" width="180" height="30" as="geometry" />
        </mxCell>
        <mxCell id="7bU3Pskr32MJ_-238bRp-9" value="Select the options by entering the sr no (1 or 2)" style="text;strokeColor=none;fillColor=none;align=left;verticalAlign=middle;spacingLeft=4;spacingRight=4;overflow=hidden;points=[[0,0.5],[1,0.5]];portConstraint=eastwest;rotatable=0;whiteSpace=wrap;html=1;" vertex="1" parent="7bU3Pskr32MJ_-238bRp-6">
          <mxGeometry y="90" width="180" height="30" as="geometry" />
        </mxCell>
        <mxCell id="7bU3Pskr32MJ_-238bRp-28" style="edgeStyle=orthogonalEdgeStyle;rounded=0;orthogonalLoop=1;jettySize=auto;html=1;exitX=0.5;exitY=1;exitDx=0;exitDy=0;entryX=0.5;entryY=0;entryDx=0;entryDy=0;" edge="1" parent="1" source="7bU3Pskr32MJ_-238bRp-10" target="7bU3Pskr32MJ_-238bRp-20">
          <mxGeometry relative="1" as="geometry" />
        </mxCell>
        <mxCell id="7bU3Pskr32MJ_-238bRp-29" style="edgeStyle=orthogonalEdgeStyle;rounded=0;orthogonalLoop=1;jettySize=auto;html=1;exitX=0.5;exitY=1;exitDx=0;exitDy=0;entryX=0.5;entryY=0;entryDx=0;entryDy=0;" edge="1" parent="1" source="7bU3Pskr32MJ_-238bRp-10" target="7bU3Pskr32MJ_-238bRp-22">
          <mxGeometry relative="1" as="geometry" />
        </mxCell>
        <mxCell id="7bU3Pskr32MJ_-238bRp-30" style="edgeStyle=orthogonalEdgeStyle;rounded=0;orthogonalLoop=1;jettySize=auto;html=1;exitX=0.5;exitY=1;exitDx=0;exitDy=0;entryX=0.5;entryY=0;entryDx=0;entryDy=0;" edge="1" parent="1" source="7bU3Pskr32MJ_-238bRp-10" target="7bU3Pskr32MJ_-238bRp-26">
          <mxGeometry relative="1" as="geometry" />
        </mxCell>
        <mxCell id="7bU3Pskr32MJ_-238bRp-31" style="edgeStyle=orthogonalEdgeStyle;rounded=0;orthogonalLoop=1;jettySize=auto;html=1;exitX=0.5;exitY=1;exitDx=0;exitDy=0;entryX=0.5;entryY=0;entryDx=0;entryDy=0;" edge="1" parent="1" source="7bU3Pskr32MJ_-238bRp-10" target="7bU3Pskr32MJ_-238bRp-24">
          <mxGeometry relative="1" as="geometry" />
        </mxCell>
        <mxCell id="7bU3Pskr32MJ_-238bRp-10" value="Manage Employees" style="swimlane;whiteSpace=wrap;html=1;" vertex="1" parent="1">
          <mxGeometry x="-120" y="280" width="200" height="200" as="geometry" />
        </mxCell>
        <mxCell id="7bU3Pskr32MJ_-238bRp-12" value="&lt;ol&gt;&lt;li&gt;Add Employees&lt;/li&gt;&lt;li&gt;Edit Employees&lt;/li&gt;&lt;li&gt;Delete Employees&lt;/li&gt;&lt;li&gt;View Employees&lt;/li&gt;&lt;li&gt;Go Back&lt;/li&gt;&lt;/ol&gt;" style="text;html=1;align=left;verticalAlign=middle;resizable=0;points=[];autosize=1;strokeColor=none;fillColor=none;" vertex="1" parent="7bU3Pskr32MJ_-238bRp-10">
          <mxGeometry y="30" width="160" height="110" as="geometry" />
        </mxCell>
        <mxCell id="7bU3Pskr32MJ_-238bRp-42" style="edgeStyle=orthogonalEdgeStyle;rounded=0;orthogonalLoop=1;jettySize=auto;html=1;exitX=0.5;exitY=1;exitDx=0;exitDy=0;entryX=0.5;entryY=0;entryDx=0;entryDy=0;" edge="1" parent="1" source="7bU3Pskr32MJ_-238bRp-11" target="7bU3Pskr32MJ_-238bRp-34">
          <mxGeometry relative="1" as="geometry" />
        </mxCell>
        <mxCell id="7bU3Pskr32MJ_-238bRp-43" style="edgeStyle=orthogonalEdgeStyle;rounded=0;orthogonalLoop=1;jettySize=auto;html=1;exitX=0.5;exitY=1;exitDx=0;exitDy=0;" edge="1" parent="1" source="7bU3Pskr32MJ_-238bRp-11" target="7bU3Pskr32MJ_-238bRp-32">
          <mxGeometry relative="1" as="geometry" />
        </mxCell>
        <mxCell id="7bU3Pskr32MJ_-238bRp-44" style="edgeStyle=orthogonalEdgeStyle;rounded=0;orthogonalLoop=1;jettySize=auto;html=1;exitX=0.5;exitY=1;exitDx=0;exitDy=0;entryX=0.5;entryY=0;entryDx=0;entryDy=0;" edge="1" parent="1" source="7bU3Pskr32MJ_-238bRp-11" target="7bU3Pskr32MJ_-238bRp-36">
          <mxGeometry relative="1" as="geometry" />
        </mxCell>
        <mxCell id="7bU3Pskr32MJ_-238bRp-45" style="edgeStyle=orthogonalEdgeStyle;rounded=0;orthogonalLoop=1;jettySize=auto;html=1;exitX=0.5;exitY=1;exitDx=0;exitDy=0;" edge="1" parent="1" source="7bU3Pskr32MJ_-238bRp-11" target="7bU3Pskr32MJ_-238bRp-38">
          <mxGeometry relative="1" as="geometry" />
        </mxCell>
        <mxCell id="LAP508DOjitYPFxKGORf-1" style="edgeStyle=orthogonalEdgeStyle;rounded=0;orthogonalLoop=1;jettySize=auto;html=1;exitX=0.5;exitY=1;exitDx=0;exitDy=0;entryX=0.5;entryY=0;entryDx=0;entryDy=0;" edge="1" parent="1" source="7bU3Pskr32MJ_-238bRp-11" target="7bU3Pskr32MJ_-238bRp-40">
          <mxGeometry relative="1" as="geometry" />
        </mxCell>
        <mxCell id="7bU3Pskr32MJ_-238bRp-11" value="Travel Requests" style="swimlane;whiteSpace=wrap;html=1;" vertex="1" parent="1">
          <mxGeometry x="1260" y="270" width="200" height="200" as="geometry" />
        </mxCell>
        <mxCell id="7bU3Pskr32MJ_-238bRp-13" value="&lt;ol&gt;&lt;li&gt;Raise Travel Request&lt;/li&gt;&lt;li&gt;View Travel Request&lt;/li&gt;&lt;li&gt;Delete Travel Request&lt;/li&gt;&lt;li&gt;Approve Travel Request&lt;/li&gt;&lt;li&gt;Confirm Booking&lt;/li&gt;&lt;li&gt;Go Back&lt;/li&gt;&lt;/ol&gt;" style="text;html=1;align=left;verticalAlign=middle;resizable=0;points=[];autosize=1;strokeColor=none;fillColor=none;" vertex="1" parent="7bU3Pskr32MJ_-238bRp-11">
          <mxGeometry y="25" width="190" height="120" as="geometry" />
        </mxCell>
        <mxCell id="7bU3Pskr32MJ_-238bRp-14" value="" style="endArrow=classic;html=1;rounded=0;entryX=0.5;entryY=0;entryDx=0;entryDy=0;exitX=0.489;exitY=1.005;exitDx=0;exitDy=0;exitPerimeter=0;" edge="1" parent="1" source="7bU3Pskr32MJ_-238bRp-9" target="7bU3Pskr32MJ_-238bRp-10">
          <mxGeometry width="50" height="50" relative="1" as="geometry">
            <mxPoint x="612" y="190" as="sourcePoint" />
            <mxPoint x="652" y="240" as="targetPoint" />
          </mxGeometry>
        </mxCell>
        <mxCell id="7bU3Pskr32MJ_-238bRp-15" value="" style="endArrow=classic;html=1;rounded=0;exitX=0.468;exitY=0.984;exitDx=0;exitDy=0;exitPerimeter=0;entryX=0.5;entryY=0;entryDx=0;entryDy=0;" edge="1" parent="1" source="7bU3Pskr32MJ_-238bRp-9" target="7bU3Pskr32MJ_-238bRp-11">
          <mxGeometry width="50" height="50" relative="1" as="geometry">
            <mxPoint x="620" y="210" as="sourcePoint" />
            <mxPoint x="392" y="290" as="targetPoint" />
          </mxGeometry>
        </mxCell>
        <mxCell id="7bU3Pskr32MJ_-238bRp-20" value="Add Employee" style="swimlane;whiteSpace=wrap;html=1;" vertex="1" parent="1">
          <mxGeometry x="-680" y="560" width="230" height="200" as="geometry" />
        </mxCell>
        <mxCell id="7bU3Pskr32MJ_-238bRp-21" value="&lt;div&gt;&lt;ol&gt;&lt;li&gt;emp_id int primary key identity(1,1),&lt;/li&gt;&lt;li&gt;emp_Fname varchar(20) not null,&lt;/li&gt;&lt;li&gt;emp_Lname varchar(20),&lt;/li&gt;&lt;li&gt;emp_dob date,&lt;/li&gt;&lt;li&gt;emp_address varchar(30),&lt;/li&gt;&lt;li&gt;emp_contact varchar(20)&lt;/li&gt;&lt;/ol&gt;&lt;/div&gt;" style="text;html=1;align=left;verticalAlign=middle;resizable=0;points=[];autosize=1;strokeColor=none;fillColor=none;" vertex="1" parent="7bU3Pskr32MJ_-238bRp-20">
          <mxGeometry x="-20" y="40" width="250" height="120" as="geometry" />
        </mxCell>
        <mxCell id="7bU3Pskr32MJ_-238bRp-22" value="Edit Employee" style="swimlane;whiteSpace=wrap;html=1;" vertex="1" parent="1">
          <mxGeometry x="-360" y="560" width="230" height="200" as="geometry" />
        </mxCell>
        <mxCell id="7bU3Pskr32MJ_-238bRp-23" value="&lt;div&gt;&lt;ol&gt;&lt;li&gt;emp_id int primary key identity(1,1),&lt;/li&gt;&lt;li&gt;emp_Fname varchar(20) not null,&lt;/li&gt;&lt;li&gt;emp_Lname varchar(20),&lt;/li&gt;&lt;li&gt;emp_dob date,&lt;/li&gt;&lt;li&gt;emp_address varchar(30),&lt;/li&gt;&lt;li&gt;emp_contact varchar(20)&lt;/li&gt;&lt;/ol&gt;&lt;/div&gt;" style="text;html=1;align=left;verticalAlign=middle;resizable=0;points=[];autosize=1;strokeColor=none;fillColor=none;" vertex="1" parent="7bU3Pskr32MJ_-238bRp-22">
          <mxGeometry x="-20" y="40" width="250" height="120" as="geometry" />
        </mxCell>
        <mxCell id="7bU3Pskr32MJ_-238bRp-24" value="View Employee" style="swimlane;whiteSpace=wrap;html=1;" vertex="1" parent="1">
          <mxGeometry x="330" y="560" width="230" height="200" as="geometry" />
        </mxCell>
        <mxCell id="7bU3Pskr32MJ_-238bRp-25" value="&lt;div&gt;&lt;ol&gt;&lt;li&gt;emp_id int primary key identity(1,1),&lt;/li&gt;&lt;li&gt;emp_Fname varchar(20) not null,&lt;/li&gt;&lt;li&gt;emp_Lname varchar(20),&lt;/li&gt;&lt;li&gt;emp_dob date,&lt;/li&gt;&lt;li&gt;emp_address varchar(30),&lt;/li&gt;&lt;li&gt;emp_contact varchar(20)&lt;/li&gt;&lt;/ol&gt;&lt;/div&gt;" style="text;html=1;align=left;verticalAlign=middle;resizable=0;points=[];autosize=1;strokeColor=none;fillColor=none;" vertex="1" parent="7bU3Pskr32MJ_-238bRp-24">
          <mxGeometry x="-20" y="40" width="250" height="120" as="geometry" />
        </mxCell>
        <mxCell id="7bU3Pskr32MJ_-238bRp-26" value="Delete Employee" style="swimlane;whiteSpace=wrap;html=1;" vertex="1" parent="1">
          <mxGeometry x="-30" y="560" width="230" height="200" as="geometry" />
        </mxCell>
        <mxCell id="7bU3Pskr32MJ_-238bRp-27" value="&lt;ol&gt;&lt;li&gt;emp_id int primary key identity(1,1),&lt;/li&gt;&lt;/ol&gt;" style="text;html=1;align=left;verticalAlign=middle;resizable=0;points=[];autosize=1;strokeColor=none;fillColor=none;" vertex="1" parent="7bU3Pskr32MJ_-238bRp-26">
          <mxGeometry x="-20" y="75" width="250" height="50" as="geometry" />
        </mxCell>
        <mxCell id="7bU3Pskr32MJ_-238bRp-32" value="View Request" style="swimlane;whiteSpace=wrap;html=1;" vertex="1" parent="1">
          <mxGeometry x="1120" y="570" width="330" height="200" as="geometry" />
        </mxCell>
        <mxCell id="7bU3Pskr32MJ_-238bRp-33" value="&lt;ol&gt;&lt;li&gt;&lt;span style=&quot;background-color: initial;&quot;&gt;request_id int primary key identity(1,1),&lt;/span&gt;&lt;/li&gt;&lt;li&gt;&lt;span style=&quot;background-color: initial;&quot;&gt;emp_id int foreign key references employee(emp_id),&lt;/span&gt;&lt;/li&gt;&lt;li&gt;&lt;span style=&quot;background-color: initial;&quot;&gt;location_From varchar(20),&lt;/span&gt;&lt;/li&gt;&lt;li&gt;&lt;span style=&quot;background-color: initial;&quot;&gt;location_To varchar(20),&lt;/span&gt;&lt;/li&gt;&lt;li&gt;&lt;span style=&quot;background-color: initial;&quot;&gt;approval_Status varchar(20),&lt;/span&gt;&lt;/li&gt;&lt;li&gt;&lt;span style=&quot;background-color: initial;&quot;&gt;booking_Status varchar(20),&lt;/span&gt;&lt;/li&gt;&lt;li&gt;&lt;span style=&quot;background-color: initial;&quot;&gt;current_Status varchar(20)&lt;/span&gt;&lt;/li&gt;&lt;/ol&gt;&lt;ol&gt;&lt;/ol&gt;&lt;ol&gt;&lt;/ol&gt;&lt;ol&gt;&lt;/ol&gt;&lt;ol&gt;&lt;/ol&gt;&lt;ol&gt;&lt;/ol&gt;" style="text;html=1;align=left;verticalAlign=middle;resizable=0;points=[];autosize=1;strokeColor=none;fillColor=none;" vertex="1" parent="7bU3Pskr32MJ_-238bRp-32">
          <mxGeometry x="-20" y="30" width="350" height="140" as="geometry" />
        </mxCell>
        <mxCell id="7bU3Pskr32MJ_-238bRp-34" value="Raise Request" style="swimlane;whiteSpace=wrap;html=1;" vertex="1" parent="1">
          <mxGeometry x="712" y="570" width="330" height="200" as="geometry" />
        </mxCell>
        <mxCell id="7bU3Pskr32MJ_-238bRp-35" value="&lt;ol&gt;&lt;li&gt;&lt;span style=&quot;background-color: initial;&quot;&gt;request_id int primary key identity(1,1),&lt;/span&gt;&lt;/li&gt;&lt;li&gt;&lt;span style=&quot;background-color: initial;&quot;&gt;emp_id int foreign key references employee(emp_id),&lt;/span&gt;&lt;/li&gt;&lt;li&gt;&lt;span style=&quot;background-color: initial;&quot;&gt;location_From varchar(20),&lt;/span&gt;&lt;/li&gt;&lt;li&gt;&lt;span style=&quot;background-color: initial;&quot;&gt;location_To varchar(20),&lt;/span&gt;&lt;/li&gt;&lt;li&gt;&lt;span style=&quot;background-color: initial;&quot;&gt;approval_Status varchar(20),&lt;/span&gt;&lt;/li&gt;&lt;li&gt;&lt;span style=&quot;background-color: initial;&quot;&gt;booking_Status varchar(20),&lt;/span&gt;&lt;/li&gt;&lt;li&gt;&lt;span style=&quot;background-color: initial;&quot;&gt;current_Status varchar(20)&lt;/span&gt;&lt;/li&gt;&lt;/ol&gt;&lt;ol&gt;&lt;/ol&gt;&lt;ol&gt;&lt;/ol&gt;&lt;ol&gt;&lt;/ol&gt;&lt;ol&gt;&lt;/ol&gt;&lt;ol&gt;&lt;/ol&gt;" style="text;html=1;align=left;verticalAlign=middle;resizable=0;points=[];autosize=1;strokeColor=none;fillColor=none;" vertex="1" parent="7bU3Pskr32MJ_-238bRp-34">
          <mxGeometry x="-20" y="30" width="350" height="140" as="geometry" />
        </mxCell>
        <mxCell id="7bU3Pskr32MJ_-238bRp-36" value="Delete Request" style="swimlane;whiteSpace=wrap;html=1;" vertex="1" parent="1">
          <mxGeometry x="1540" y="570" width="330" height="200" as="geometry" />
        </mxCell>
        <mxCell id="7bU3Pskr32MJ_-238bRp-37" value="&lt;ol&gt;&lt;li&gt;&lt;span style=&quot;background-color: initial;&quot;&gt;request_id int primary key identity(1,1),&lt;/span&gt;&lt;/li&gt;&lt;/ol&gt;&lt;ol&gt;&lt;/ol&gt;&lt;ol&gt;&lt;/ol&gt;&lt;ol&gt;&lt;/ol&gt;&lt;ol&gt;&lt;/ol&gt;&lt;ol&gt;&lt;/ol&gt;" style="text;html=1;align=left;verticalAlign=middle;resizable=0;points=[];autosize=1;strokeColor=none;fillColor=none;" vertex="1" parent="7bU3Pskr32MJ_-238bRp-36">
          <mxGeometry x="-20" y="75" width="270" height="50" as="geometry" />
        </mxCell>
        <mxCell id="7bU3Pskr32MJ_-238bRp-38" value="Approve Request" style="swimlane;whiteSpace=wrap;html=1;" vertex="1" parent="1">
          <mxGeometry x="1960" y="570" width="330" height="200" as="geometry" />
        </mxCell>
        <mxCell id="7bU3Pskr32MJ_-238bRp-39" value="&lt;ol&gt;&lt;li&gt;&lt;span style=&quot;background-color: initial;&quot;&gt;request_id int primary key identity(1,1),&lt;/span&gt;&lt;/li&gt;&lt;/ol&gt;&lt;ol&gt;&lt;/ol&gt;&lt;ol&gt;&lt;/ol&gt;&lt;ol&gt;&lt;/ol&gt;&lt;ol&gt;&lt;/ol&gt;&lt;ol&gt;&lt;/ol&gt;" style="text;html=1;align=left;verticalAlign=middle;resizable=0;points=[];autosize=1;strokeColor=none;fillColor=none;" vertex="1" parent="7bU3Pskr32MJ_-238bRp-38">
          <mxGeometry x="-20" y="75" width="270" height="50" as="geometry" />
        </mxCell>
        <mxCell id="7bU3Pskr32MJ_-238bRp-40" value="Confirm Booking" style="swimlane;whiteSpace=wrap;html=1;" vertex="1" parent="1">
          <mxGeometry x="2360" y="570" width="330" height="200" as="geometry" />
        </mxCell>
        <mxCell id="7bU3Pskr32MJ_-238bRp-41" value="&lt;ol&gt;&lt;li&gt;&lt;span style=&quot;background-color: initial;&quot;&gt;request_id int primary key identity(1,1),&lt;/span&gt;&lt;/li&gt;&lt;/ol&gt;&lt;ol&gt;&lt;/ol&gt;&lt;ol&gt;&lt;/ol&gt;&lt;ol&gt;&lt;/ol&gt;&lt;ol&gt;&lt;/ol&gt;&lt;ol&gt;&lt;/ol&gt;" style="text;html=1;align=left;verticalAlign=middle;resizable=0;points=[];autosize=1;strokeColor=none;fillColor=none;" vertex="1" parent="7bU3Pskr32MJ_-238bRp-40">
          <mxGeometry x="-20" y="75" width="270" height="50" as="geometry" />
        </mxCell>
      </root>
    </mxGraphModel>
  </diagram>
  <diagram id="fAhkNtc1TITKoI2ovw-1" name="flow Chart">
    <mxGraphModel dx="746" dy="-641" grid="1" gridSize="10" guides="1" tooltips="1" connect="1" arrows="1" fold="1" page="1" pageScale="1" pageWidth="850" pageHeight="1100" math="0" shadow="0">
      <root>
        <mxCell id="0" />
        <mxCell id="1" parent="0" />
        <mxCell id="z1r73SBu-iBRlljMA3du-1" style="edgeStyle=orthogonalEdgeStyle;rounded=0;orthogonalLoop=1;jettySize=auto;html=1;exitX=0.5;exitY=1;exitDx=0;exitDy=0;" edge="1" parent="1" source="z1r73SBu-iBRlljMA3du-2" target="z1r73SBu-iBRlljMA3du-8">
          <mxGeometry relative="1" as="geometry" />
        </mxCell>
        <mxCell id="z1r73SBu-iBRlljMA3du-2" value="start" style="ellipse;whiteSpace=wrap;html=1;" vertex="1" parent="1">
          <mxGeometry x="610" y="1390" width="120" height="30" as="geometry" />
        </mxCell>
        <mxCell id="z1r73SBu-iBRlljMA3du-3" style="edgeStyle=orthogonalEdgeStyle;rounded=0;orthogonalLoop=1;jettySize=auto;html=1;exitX=0.5;exitY=1;exitDx=0;exitDy=0;" edge="1" parent="1" source="z1r73SBu-iBRlljMA3du-4" target="z1r73SBu-iBRlljMA3du-13">
          <mxGeometry relative="1" as="geometry" />
        </mxCell>
        <mxCell id="z1r73SBu-iBRlljMA3du-4" value="Travel req status=open" style="rounded=0;whiteSpace=wrap;html=1;" vertex="1" parent="1">
          <mxGeometry x="610" y="1740" width="120" height="60" as="geometry" />
        </mxCell>
        <mxCell id="z1r73SBu-iBRlljMA3du-5" style="edgeStyle=orthogonalEdgeStyle;rounded=0;orthogonalLoop=1;jettySize=auto;html=1;exitX=0.5;exitY=1;exitDx=0;exitDy=0;" edge="1" parent="1" source="z1r73SBu-iBRlljMA3du-6" target="z1r73SBu-iBRlljMA3du-4">
          <mxGeometry relative="1" as="geometry" />
        </mxCell>
        <mxCell id="z1r73SBu-iBRlljMA3du-6" value="Raise travel request" style="rounded=0;whiteSpace=wrap;html=1;" vertex="1" parent="1">
          <mxGeometry x="610" y="1610" width="120" height="60" as="geometry" />
        </mxCell>
        <mxCell id="z1r73SBu-iBRlljMA3du-7" style="edgeStyle=orthogonalEdgeStyle;rounded=0;orthogonalLoop=1;jettySize=auto;html=1;exitX=0.5;exitY=1;exitDx=0;exitDy=0;entryX=0.5;entryY=0;entryDx=0;entryDy=0;" edge="1" parent="1" source="z1r73SBu-iBRlljMA3du-8" target="z1r73SBu-iBRlljMA3du-6">
          <mxGeometry relative="1" as="geometry" />
        </mxCell>
        <mxCell id="z1r73SBu-iBRlljMA3du-8" value="Add employee" style="rounded=0;whiteSpace=wrap;html=1;" vertex="1" parent="1">
          <mxGeometry x="610" y="1480" width="120" height="60" as="geometry" />
        </mxCell>
        <mxCell id="z1r73SBu-iBRlljMA3du-9" style="edgeStyle=orthogonalEdgeStyle;rounded=0;orthogonalLoop=1;jettySize=auto;html=1;exitX=0.5;exitY=1;exitDx=0;exitDy=0;entryX=0.5;entryY=0;entryDx=0;entryDy=0;" edge="1" parent="1" source="z1r73SBu-iBRlljMA3du-10" target="z1r73SBu-iBRlljMA3du-16">
          <mxGeometry relative="1" as="geometry" />
        </mxCell>
        <mxCell id="z1r73SBu-iBRlljMA3du-10" value="Approve status=approved" style="rounded=0;whiteSpace=wrap;html=1;" vertex="1" parent="1">
          <mxGeometry x="610" y="1980" width="120" height="60" as="geometry" />
        </mxCell>
        <mxCell id="z1r73SBu-iBRlljMA3du-11" style="edgeStyle=orthogonalEdgeStyle;rounded=0;orthogonalLoop=1;jettySize=auto;html=1;exitX=0.5;exitY=1;exitDx=0;exitDy=0;entryX=0.5;entryY=0;entryDx=0;entryDy=0;" edge="1" parent="1" source="z1r73SBu-iBRlljMA3du-13" target="z1r73SBu-iBRlljMA3du-10">
          <mxGeometry relative="1" as="geometry" />
        </mxCell>
        <mxCell id="z1r73SBu-iBRlljMA3du-12" style="edgeStyle=orthogonalEdgeStyle;rounded=0;orthogonalLoop=1;jettySize=auto;html=1;exitX=1;exitY=0.5;exitDx=0;exitDy=0;entryX=0;entryY=0.5;entryDx=0;entryDy=0;" edge="1" parent="1" source="z1r73SBu-iBRlljMA3du-13" target="z1r73SBu-iBRlljMA3du-21">
          <mxGeometry relative="1" as="geometry" />
        </mxCell>
        <mxCell id="z1r73SBu-iBRlljMA3du-13" value="Approve" style="rhombus;whiteSpace=wrap;html=1;" vertex="1" parent="1">
          <mxGeometry x="630" y="1840" width="80" height="80" as="geometry" />
        </mxCell>
        <mxCell id="z1r73SBu-iBRlljMA3du-14" value="Update booking status=no" style="rounded=0;whiteSpace=wrap;html=1;" vertex="1" parent="1">
          <mxGeometry x="760" y="2070" width="120" height="60" as="geometry" />
        </mxCell>
        <mxCell id="z1r73SBu-iBRlljMA3du-15" style="edgeStyle=orthogonalEdgeStyle;rounded=0;orthogonalLoop=1;jettySize=auto;html=1;exitX=0.5;exitY=1;exitDx=0;exitDy=0;entryX=0.5;entryY=0;entryDx=0;entryDy=0;" edge="1" parent="1" source="z1r73SBu-iBRlljMA3du-16" target="z1r73SBu-iBRlljMA3du-18">
          <mxGeometry relative="1" as="geometry" />
        </mxCell>
        <mxCell id="z1r73SBu-iBRlljMA3du-16" value="Booking availabale" style="rhombus;whiteSpace=wrap;html=1;" vertex="1" parent="1">
          <mxGeometry x="632" y="2070" width="88" height="80" as="geometry" />
        </mxCell>
        <mxCell id="z1r73SBu-iBRlljMA3du-17" style="edgeStyle=orthogonalEdgeStyle;rounded=0;orthogonalLoop=1;jettySize=auto;html=1;exitX=0.5;exitY=1;exitDx=0;exitDy=0;entryX=0.5;entryY=0;entryDx=0;entryDy=0;" edge="1" parent="1" source="z1r73SBu-iBRlljMA3du-18" target="z1r73SBu-iBRlljMA3du-19">
          <mxGeometry relative="1" as="geometry" />
        </mxCell>
        <mxCell id="z1r73SBu-iBRlljMA3du-18" value="Update travel req =closed &amp;amp; booking available=Yes" style="rounded=0;whiteSpace=wrap;html=1;" vertex="1" parent="1">
          <mxGeometry x="616" y="2200" width="120" height="60" as="geometry" />
        </mxCell>
        <mxCell id="z1r73SBu-iBRlljMA3du-19" value="end" style="rounded=1;whiteSpace=wrap;html=1;" vertex="1" parent="1">
          <mxGeometry x="632" y="2330" width="90" height="50" as="geometry" />
        </mxCell>
        <mxCell id="z1r73SBu-iBRlljMA3du-20" style="edgeStyle=orthogonalEdgeStyle;rounded=0;orthogonalLoop=1;jettySize=auto;html=1;exitX=0.5;exitY=0;exitDx=0;exitDy=0;" edge="1" parent="1" source="z1r73SBu-iBRlljMA3du-21" target="z1r73SBu-iBRlljMA3du-22">
          <mxGeometry relative="1" as="geometry" />
        </mxCell>
        <mxCell id="z1r73SBu-iBRlljMA3du-21" value="Update travel req=not approved" style="rounded=0;whiteSpace=wrap;html=1;" vertex="1" parent="1">
          <mxGeometry x="790" y="1850" width="120" height="60" as="geometry" />
        </mxCell>
        <mxCell id="z1r73SBu-iBRlljMA3du-22" value="end" style="rounded=1;whiteSpace=wrap;html=1;" vertex="1" parent="1">
          <mxGeometry x="805" y="1750" width="90" height="50" as="geometry" />
        </mxCell>
        <mxCell id="z1r73SBu-iBRlljMA3du-23" style="edgeStyle=orthogonalEdgeStyle;rounded=0;orthogonalLoop=1;jettySize=auto;html=1;exitX=1;exitY=0.5;exitDx=0;exitDy=0;entryX=-0.012;entryY=0.641;entryDx=0;entryDy=0;entryPerimeter=0;" edge="1" parent="1" source="z1r73SBu-iBRlljMA3du-16" target="z1r73SBu-iBRlljMA3du-14">
          <mxGeometry relative="1" as="geometry" />
        </mxCell>
      </root>
    </mxGraphModel>
  </diagram>
</mxfile>
